<svg width="32" height="60" viewBox="0 0 32 60" fill="none" xmlns="http://www.w3.org/2000/svg">
<path d="M30.0301 12.3033C29.8034 12.3033 29.5939 12.3538 29.4005 12.4364C28.745 9.58295 26.1922 7.44533 23.1404 7.44533C22.6291 7.44533 22.1252 7.5057 21.6336 7.62521C21.3662 4.75574 19.2077 2.42715 16.4195 1.90476C16.4971 1.7372 16.544 1.55486 16.544 1.36142C16.544 0.609869 15.8823 0 15.0643 0C14.2486 0 13.5858 0.611101 13.5858 1.36142C13.5858 1.58319 13.6486 1.78772 13.7496 1.97253C10.9171 2.644 8.80293 5.18696 8.80293 8.22029C8.80293 8.44822 8.81525 8.67739 8.83989 8.90532C5.70554 8.69217 2.98515 10.8039 2.22251 13.6882C2.14119 13.6746 2.05618 13.6648 1.96994 13.6648C1.15308 13.6648 0.491467 14.2746 0.491467 15.0262C0.491467 15.779 1.15308 16.3876 1.96994 16.3876C2.01429 16.3876 2.05495 16.379 2.09807 16.3753C2.60568 19.4172 5.24968 21.7458 8.43331 21.7458C8.86207 21.7458 9.2859 21.7027 9.7048 21.6177C9.84525 23.8145 11.1069 25.6958 12.9106 26.7431C12.9069 26.7923 12.8909 26.8194 12.8909 26.8737C12.8909 28.0256 13.5266 29.0199 14.4593 29.5546V31.3263H12.7258V33.0007H14.4605V35.9465H12.727V37.6209H14.4605V47.2297H12.5878V48.9238H14.4605V50.0376H9.33395V54.112H11.5184V52.0729H12.3907V54.112H14.431V54.9831H12.3907V57.0258H11.5184V54.9843H9.33395V58.6645H14.4605V59.9988H17.5407V58.6645H22.6673V54.9843H20.4828V57.027H19.6105V54.9843H17.5678V54.1132H19.6081V52.0729H20.4816V54.1132H22.6648V50.0388H17.5382V48.925H19.1116V47.2309H17.5382V37.6221H19.2742V35.9478H17.5382V33.0019H19.2742V31.3275H17.5382V29.546C18.461 29.0076 19.0882 28.0207 19.0882 26.8761C19.0882 26.8724 19.0869 26.8712 19.0869 26.8675C21.1334 25.7907 22.5465 23.6691 22.5465 21.2013C22.5465 20.8883 22.5219 20.5766 22.4763 20.2674C22.6981 20.2908 22.9162 20.3019 23.1392 20.3019C26.324 20.3019 28.968 17.9708 29.4744 14.9264C29.6469 14.9905 29.8329 15.0274 30.0301 15.0274C30.8457 15.0274 31.5073 14.4175 31.5073 13.666C31.5085 12.9157 30.8481 12.3033 30.0301 12.3033ZM23.1416 18.7507C22.6389 18.7507 22.1412 18.6743 21.6595 18.5191L20.1514 18.0386L20.6935 19.5244C20.8931 20.0727 20.9966 20.637 20.9966 21.2013C20.9966 23.8908 18.8097 26.079 16.1189 26.079C13.4293 26.079 11.2412 23.8908 11.2412 21.2013C11.2412 21.0189 11.2535 20.839 11.2732 20.6604L11.4137 19.3827L10.2161 19.8546C9.64073 20.0825 9.04072 20.1971 8.43208 20.1971C5.7425 20.1971 3.55436 18.009 3.55436 15.3194C3.55436 12.2417 6.41397 9.78254 9.62841 10.5969L10.9541 10.9333L10.5623 9.62237C10.4256 9.16405 10.3553 8.6934 10.3553 8.22029C10.3553 5.52948 12.5435 3.34257 15.233 3.34257C17.9226 3.34257 20.1108 5.52948 20.1108 8.22029C20.1108 8.36075 20.1009 8.49997 20.0874 8.63796L19.9789 9.93901L21.1753 9.41169C21.7999 9.13571 22.4628 8.99649 23.1416 8.99649C25.8324 8.99649 28.0193 11.1834 28.0193 13.873C28.0181 16.5626 25.8287 18.7507 23.1416 18.7507Z" fill="black"/>
<path d="M15.32 11.632H16.4V19H15.32V11.632ZM17.66 11.488V12.364H14.06V11.488H17.66Z" fill="black"/>
</svg>
