<svg width="131" height="127" viewBox="0 0 131 127" fill="none" xmlns="http://www.w3.org/2000/svg">
<path d="M58.8404 28.8325C52.4404 32.3045 64.2884 53.7685 68.5605 61.0485C64.2345 56.8789 60.1581 52.4579 56.3524 47.8085C55.3364 40.6085 50.3204 7.60052 43.6484 12.0085C37.9044 15.8085 48.5604 35.6645 53.8324 44.7045C47.0565 36.0827 40.7975 27.0669 35.0884 17.7045C35.0164 17.5205 27.2324 -3.67948 22.2564 0.560523C17.2804 4.80052 33.7684 19.1205 33.7684 19.1205V19.0725C35.7444 22.7205 38.6804 28.0245 42.4324 34.0165C36.5044 27.2805 25.2724 16.0725 19.4484 20.1365C11.6404 25.5845 37.5764 37.4405 45.4004 38.5925C48.4084 43.1365 51.8004 47.9205 55.5844 52.5925C48.6244 47.6565 32.8244 37.3925 29.8484 43.6485C26.1044 51.5205 42.0004 55.8005 57.6324 55.0805C64.2244 62.9445 71.7524 70.2805 79.8884 75.4005L81.6884 71.2405C81.6884 71.2405 77.3764 69.2085 69.8965 62.2965C69.2484 55.8885 65.7764 25.0725 58.8404 28.8325Z" fill="#585123"/>
<path d="M24.5025 81.0551C22.4155 84.5806 27.0623 87.1458 27.0623 87.1458L23.2144 85.7251C23.2144 85.7251 17.8421 76.7534 17.1573 81.2721C16.4725 85.7909 27.7552 88.0864 27.7552 88.0864C27.7552 88.0864 16.7905 86.567 19.1139 88.7442C21.4372 90.9213 29.3775 88.7442 29.3775 88.7442C32.4998 90.0071 35.6384 91.1055 38.7036 92.0329C34.277 91.9935 24.3394 92.204 27.7552 93.9273C31.4726 95.8084 40.7987 92.6644 40.7987 92.6644C44.0596 93.6247 47.2064 94.4206 50.1493 95.0783C44.7363 95.7032 30.8367 97.5252 35.2634 99.2616C40.0732 101.143 49.3504 97.5712 53.451 95.7887C54.2662 95.9597 55.0814 96.1176 55.8966 96.2689C61.3831 97.295 65.557 97.7817 67.3097 97.9659C64.9515 99.489 62.4824 100.897 59.9157 102.182C52.5787 99.551 41.8422 99.8931 45.7308 102.886C48.2743 104.859 52.1303 104.859 54.9591 104.497C50.8435 106.269 46.5931 107.829 42.2335 109.167C38.3042 107.852 26.2307 104.004 27.7144 107.687C28.8965 110.601 34.6275 110.628 38.3123 110.318C34.0569 111.516 30.046 112.443 26.5405 113.153C24.9101 112.496 13.7416 108.102 15.3068 111.246C16.2769 113.219 19.5215 113.811 22.1057 113.995C16.9535 114.929 13.66 115.258 13.66 115.258C13.66 115.258 -0.304705 111.437 0.00507885 115.258C0.314863 119.08 12.6981 116.482 12.6981 116.482C16.1546 116.146 19.4644 115.725 22.6356 115.245C16.9291 117.6 5.71978 122.704 10.8801 124.092C16.7986 125.677 23.9237 117.001 25.6519 114.752C30.5742 113.916 35.4351 112.86 40.2118 111.588C35.4264 115.087 20.2389 126.644 27.7389 126.992C36.5596 127.407 43.4727 110.654 43.4727 110.654C48.7047 109.126 53.7963 107.302 58.7092 105.195C54.7798 108.582 44.5162 118.113 51.095 119.862C59.1249 122.026 62.6385 103.419 62.6385 103.419C71.606 99.1235 76 95.5256 76 95.5256C74.7935 93.7299 71.7119 94.9139 71.7119 94.9139C71.0924 95.3941 70.4565 95.8676 69.8125 96.3281C63.4763 96.1071 57.189 95.3285 51.0624 94.0062C50.6303 92.7828 46.3423 80.9432 42.4536 84.6069C38.3775 88.4613 47.6385 93.2432 47.6711 93.2629C45.4374 92.7433 43.2689 92.1908 41.1901 91.6251C39.3966 89.369 31.9781 80.3118 31.3422 84.5806C30.9427 87.2577 33.3313 88.9349 35.5406 89.8953L29.3367 87.922C29.3367 87.922 26.5894 77.5229 24.5025 81.0551Z" fill="#EDC06F"/>
<path d="M74.1996 92.0052C74.1996 92.0052 62.8091 98.507 65.5178 116.861C65.5178 116.861 74.9174 116.912 79.2327 120.398C83.5479 123.884 102.663 111.83 90.196 94.7773C90.196 94.7773 94.1267 111.208 109.474 111.107C109.474 111.107 114.908 109.956 117.788 111.107C120.668 112.258 128.709 88.7208 109.978 84.4619C109.978 84.4619 120.343 82.7819 124.504 73.1469C124.504 73.1469 125.145 69.5097 130.58 67.9389C130.58 67.9389 104.774 44.8049 94.9727 67.6868C94.9727 67.6868 97.4764 56.1703 91.324 51.0546C91.324 51.0546 82.9327 42.856 83.5736 40C83.5736 40 60.5019 51.3234 79.2327 73.1469C79.2327 73.1469 71.7387 63.2264 60.5532 67.2668C49.3677 71.3073 55.0758 84.5627 50 86.6208C50 86.6208 61.6213 98.1541 74.1996 92.0052Z" fill="#797D63"/>
<path d="M85.4449 78.1534C85.4449 78.1534 81.0528 74.5834 79.2327 77.3134C77.4126 80.0435 81.7962 81.5975 81.7962 81.5975C81.7962 81.5975 77.0537 79.4639 76.4384 83.5295C75.8232 87.5952 80.9331 85.638 80.9331 85.638C80.9331 85.638 76.1137 87.2004 79.2241 89.7036C82.3345 92.2069 83.8812 88.3176 83.8812 88.3176C83.8812 88.3176 83.0267 93.5005 86.8805 92.0893C90.7343 90.678 90.8369 86.6712 88.5895 86.604C88.5895 86.604 93.0244 92.0893 94.46 87.9648C95.8956 83.8403 90.29 83.5295 90.29 83.5295C90.29 83.5295 96.4852 85.4868 97.203 82.5383C97.9207 79.5899 91.2898 77.4982 90.29 80.4803C90.29 80.4803 94.8018 75.8182 91.3239 74.995C87.8461 74.1718 84.8297 74.5834 85.4449 78.1534Z" fill="#EDC06F"/>
</svg>
